<?xml version="1.0" encoding="utf-8"?>
<!-- Generator: Adobe Illustrator 20.1.0, SVG Export Plug-In . SVG Version: 6.00 Build 0)  -->
<svg version="1.0" id="Calque_1" xmlns="http://www.w3.org/2000/svg" xmlns:xlink="http://www.w3.org/1999/xlink" x="0px" y="0px"
	 viewBox="0 0 156.6 185" style="enable-background:new 0 0 156.6 185;" xml:space="preserve">
<style type="text/css">
	.st0{fill:#ACCE40;}
</style>
<g>
	<path class="st0" d="M11.5,59.9c3.1,0,5.8,1.1,8,3.3c2.2,2.2,3.3,4.9,3.3,8v47.8c0,3.2-1.1,5.9-3.3,8.1c-2.2,2.2-4.9,3.3-8.1,3.3
		c-3.2,0-5.9-1.1-8.1-3.3C1.1,125,0,122.3,0,119.1V71.3c0-3.1,1.1-5.8,3.3-8C5.6,61.1,8.3,59.9,11.5,59.9z M103.5,17
		c7.9,4.1,14.3,9.8,19,17.1c4.7,7.3,7.1,15.3,7.1,24H26.8c0-8.7,2.4-16.7,7.1-24C38.7,26.8,45,21.1,53,17L45.1,2.4
		c-0.5-1-0.3-1.7,0.6-2.2c1-0.4,1.7-0.2,2.2,0.7l8,14.7c7-3.1,14.5-4.7,22.4-4.7c7.9,0,15.3,1.6,22.4,4.7l8-14.7
		c0.5-0.9,1.3-1.1,2.2-0.7c0.9,0.5,1.1,1.3,0.6,2.2L103.5,17z M129.3,62.1v74.1c0,3.4-1.2,6.3-3.6,8.7c-2.4,2.4-5.2,3.6-8.6,3.6
		h-8.3v25.2c0,3.2-1.1,5.9-3.3,8.1c-2.2,2.2-4.9,3.3-8.1,3.3c-3.2,0-5.9-1.1-8.1-3.3c-2.2-2.2-3.3-4.9-3.3-8.1v-25.2H70.6v25.2
		c0,3.2-1.1,5.9-3.3,8.1c-2.2,2.2-4.9,3.3-8.1,3.3c-3.1,0-5.8-1.1-8-3.3c-2.2-2.2-3.3-4.9-3.3-8.1l-0.1-25.2h-8.2
		c-3.4,0-6.3-1.2-8.7-3.6c-2.4-2.4-3.6-5.3-3.6-8.7V62.1H129.3z M51.8,38.2c0.8,0.9,1.8,1.3,3,1.3c1.2,0,2.2-0.4,3.1-1.3
		c0.9-0.9,1.3-1.9,1.3-3.1c0-1.2-0.4-2.2-1.3-3.1c-0.9-0.9-1.9-1.3-3.1-1.3c-1.2,0-2.2,0.4-3,1.3c-0.8,0.9-1.2,1.9-1.2,3.1
		C50.6,36.3,51,37.3,51.8,38.2z M98.7,38.2c0.9,0.9,1.9,1.3,3.1,1.3c1.2,0,2.2-0.4,3-1.3c0.8-0.9,1.2-1.9,1.2-3.1
		c0-1.2-0.4-2.2-1.2-3.1c-0.8-0.9-1.8-1.3-3-1.3c-1.2,0-2.2,0.4-3.1,1.3c-0.9,0.9-1.3,1.9-1.3,3.1C97.4,36.3,97.8,37.3,98.7,38.2z
		 M156.6,71.3v47.8c0,3.2-1.1,5.9-3.3,8.1c-2.2,2.2-4.9,3.3-8.1,3.3c-3.1,0-5.8-1.1-8-3.3c-2.2-2.2-3.3-4.9-3.3-8.1V71.3
		c0-3.2,1.1-5.9,3.3-8.1c2.2-2.2,4.9-3.3,8-3.3c3.2,0,5.9,1.1,8.1,3.3C155.5,65.4,156.6,68.1,156.6,71.3z"/>
</g>
</svg>
