<?xml version="1.0" encoding="utf-8"?>
<!-- Generator: Adobe Illustrator 20.1.0, SVG Export Plug-In . SVG Version: 6.00 Build 0)  -->
<svg version="1.0" id="Calque_1" xmlns="http://www.w3.org/2000/svg" xmlns:xlink="http://www.w3.org/1999/xlink" x="0px" y="0px"
	 viewBox="0 0 120 96.3" style="enable-background:new 0 0 120 96.3;" xml:space="preserve">
<style type="text/css">
	.st0{fill:#E62D7B;}
	.st1{fill:#8C2F88;}
</style>
<g>
	<path class="st0" d="M103.2,10c3.8,0,6.8,3.1,6.8,6.8v46.3c0,3.8-3.1,6.8-6.8,6.8H20.4h-3.5l-2.7,2.2L10,75.5V10H103.2 M103.2,0H0
		v80v16.3L20.4,80h82.7c9.3,0,16.8-7.5,16.8-16.8V16.8C120,7.5,112.5,0,103.2,0L103.2,0z"/>
	<path class="st1" d="M110,20.7v42.6c0,3.7-3,6.8-6.8,6.8l-82.8,0l-3.5,0l-2.7,2.2L10,75.5V20.7l43.8,34.6l6.2,4.9l6.2-4.9L110,20.7
		 M0,0v96.3L20.4,80l82.8,0c9.3,0,16.8-7.5,16.8-16.8V16.8c0-4.5-1.8-8.9-5.1-12.1l-0.4-0.4L60,47.5L0,0L0,0z"/>
</g>
</svg>
