<?xml version="1.0" encoding="utf-8"?>
<!-- Generator: Adobe Illustrator 20.1.0, SVG Export Plug-In . SVG Version: 6.00 Build 0)  -->
<svg version="1.0" id="Calque_1" xmlns="http://www.w3.org/2000/svg" xmlns:xlink="http://www.w3.org/1999/xlink" x="0px" y="0px"
	 viewBox="0 0 124.1 118.2" style="enable-background:new 0 0 124.1 118.2;" xml:space="preserve">
<style type="text/css">
	.st0{fill:#00C300;}
</style>
<g>
	<g>
		<path class="st0" d="M124.1,50.3C124.1,22.6,96.3,0,62,0C27.8,0,0,22.6,0,50.3C0,75.2,22.1,96.1,51.9,100c2,0.4,4.8,1.3,5.5,3.1
			c0.6,1.6,0.4,4,0.2,5.6c0,0-0.7,4.4-0.9,5.3c-0.3,1.6-1.2,6.1,5.4,3.3c6.6-2.8,35.7-21,48.7-36h0
			C119.8,71.5,124.1,61.5,124.1,50.3z M37.8,66.9H25.4c-1.8,0-3.2-1.5-3.2-3.3V39c0-1.8,1.5-3.3,3.2-3.3c1.8,0,3.3,1.5,3.3,3.3v21.4
			h9.1c1.8,0,3.3,1.5,3.3,3.3C41,65.4,39.6,66.9,37.8,66.9z M50.5,63.6c0,1.8-1.5,3.3-3.3,3.3c-1.8,0-3.3-1.5-3.3-3.3V39
			c0-1.8,1.5-3.3,3.3-3.3c1.8,0,3.3,1.5,3.3,3.3V63.6z M80.2,63.6c0,1.4-0.9,2.6-2.2,3.1c-0.3,0.1-0.7,0.2-1,0.2c-1,0-2-0.5-2.6-1.3
			L61.7,48.4v15.2c0,1.8-1.5,3.3-3.3,3.3c-1.8,0-3.3-1.5-3.3-3.3V39c0-1.4,0.9-2.6,2.2-3.1c0.3-0.1,0.7-0.2,1-0.2c1,0,2,0.5,2.6,1.3
			l12.6,17.2V39c0-1.8,1.5-3.3,3.3-3.3c1.8,0,3.3,1.5,3.3,3.3V63.6z M100.1,48c1.8,0,3.3,1.5,3.3,3.3c0,1.8-1.5,3.3-3.3,3.3h-9.1
			v5.8h9.1c1.8,0,3.3,1.5,3.3,3.3c0,1.8-1.5,3.3-3.3,3.3H87.8c-1.8,0-3.3-1.5-3.3-3.3V51.3c0,0,0,0,0,0c0,0,0,0,0,0V39
			c0-1.8,1.5-3.3,3.3-3.3h12.3c1.8,0,3.3,1.5,3.3,3.3c0,1.8-1.5,3.3-3.3,3.3h-9.1V48H100.1z"/>
	</g>
</g>
</svg>
