<?xml version="1.0" encoding="utf-8"?>
<!-- Generator: Adobe Illustrator 20.1.0, SVG Export Plug-In . SVG Version: 6.00 Build 0)  -->
<svg version="1.0" id="Calque_1" xmlns="http://www.w3.org/2000/svg" xmlns:xlink="http://www.w3.org/1999/xlink" x="0px" y="0px"
	 viewBox="0 0 121.7 125.3" style="enable-background:new 0 0 121.7 125.3;" xml:space="preserve">
<style type="text/css">
	.st0{fill:url(#SVGID_1_);}
	.st1{fill:url(#SVGID_2_);}
	.st2{fill:url(#SVGID_3_);}
	.st3{fill:url(#SVGID_4_);}
	.st4{fill:url(#SVGID_5_);}
</style>
<g>
	<linearGradient id="SVGID_1_" gradientUnits="userSpaceOnUse" x1="60.8333" y1="0" x2="60.8333" y2="125.3436">
		<stop  offset="0" style="stop-color:#896CFD"/>
		<stop  offset="1" style="stop-color:#5443A7"/>
	</linearGradient>
	<path class="st0" d="M111,15.7C100.8,3.9,83,0,66.3,0h-11c-15.8,0-32.9,3.9-43,14.7C3,24.6,0,40.7,0,55.3v0c0,14,2.3,30.6,11,40.3
		c4.7,5.3,11,8.8,18,11.2v13.7c0,1.9,1.2,3.7,3,4.4c0.6,0.2,1.2,0.4,1.8,0.4c1.2,0,2.5-0.5,3.4-1.4l13.2-13.4c1.7,0.1,3.4,0.1,5,0.1
		h11c13.8,0,31.3-3.6,41-12c11.8-10.2,14.3-26.7,14.3-43.3v0C121.7,41.6,119.4,25.4,111,15.7z M111.7,55.3c0,13.9-2.2,27.7-12,36.2
		c-8.1,7-22.8,10-34.3,10h-8.7l-3.1-0.1l-19.3,19.6c-0.3,0.3-0.6,0.2-0.8,0.2c-0.2-0.1-0.5-0.3-0.5-0.7V98l-2.3-1
		c-4.4-1.9-8.4-4.5-11.5-8c-7.3-8.2-9.2-22-9.2-33.7v0c0-12.2,2.5-25.7,10.3-34c8.4-9,22.7-12.3,35.9-12.3h9.2
		c13.9,0,28.8,3.3,37.3,13.1C109.8,30.3,111.7,43.8,111.7,55.3L111.7,55.3z"/>
	<linearGradient id="SVGID_2_" gradientUnits="userSpaceOnUse" x1="69.4061" y1="40.0834" x2="69.4061" y2="51.2709">
		<stop  offset="0" style="stop-color:#896CFD"/>
		<stop  offset="1" style="stop-color:#5443A7"/>
	</linearGradient>
	<path class="st1" d="M73.7,51.3c-0.7,0-1.2-0.6-1.2-1.2c0-4.1-3.3-7.4-7.4-7.4c-0.7,0-1.2-0.6-1.2-1.2s0.6-1.2,1.2-1.2
		c5.5,0,9.9,4.5,9.9,9.9C75,50.7,74.4,51.3,73.7,51.3z"/>
	<linearGradient id="SVGID_3_" gradientUnits="userSpaceOnUse" x1="71.9061" y1="32.5834" x2="71.9061" y2="55.0209">
		<stop  offset="0" style="stop-color:#896CFD"/>
		<stop  offset="1" style="stop-color:#5443A7"/>
	</linearGradient>
	<path class="st2" d="M81.6,55c-0.8,0-1.5-0.7-1.5-1.5c0-9.9-8-17.9-17.9-17.9c-0.8,0-1.5-0.7-1.5-1.5s0.7-1.5,1.5-1.5
		c11.5,0,20.9,9.4,20.9,20.9C83.1,54.3,82.5,55,81.6,55z"/>
	<linearGradient id="SVGID_4_" gradientUnits="userSpaceOnUse" x1="73.9412" y1="24.8334" x2="73.9412" y2="59.601">
		<stop  offset="0" style="stop-color:#896CFD"/>
		<stop  offset="1" style="stop-color:#5443A7"/>
	</linearGradient>
	<path class="st3" d="M89.4,59.6c-0.1,0-0.1,0-0.2,0c-0.8-0.1-1.4-0.9-1.3-1.7c0.2-1.2,0.2-2.3,0.2-3.5c0-14.6-11.9-26.6-26.6-26.6
		c-1,0-2.1,0.1-3.1,0.2c-0.8,0.1-1.6-0.5-1.7-1.3c-0.1-0.8,0.5-1.6,1.3-1.7c1.1-0.1,2.3-0.2,3.5-0.2c16.3,0,29.6,13.3,29.6,29.6
		c0,1.3-0.1,2.6-0.3,3.9C90.8,59.1,90.1,59.6,89.4,59.6z"/>
	<linearGradient id="SVGID_5_" gradientUnits="userSpaceOnUse" x1="59.2759" y1="28.0082" x2="59.2759" y2="87.45">
		<stop  offset="0" style="stop-color:#896CFD"/>
		<stop  offset="1" style="stop-color:#5443A7"/>
	</linearGradient>
	<path class="st4" d="M32.9,32.5c-2.8,2.7-3.8,6.8-2.7,10.5c2,6.8,6.8,17.9,18.2,27.9C60,81.1,68.7,85.2,74.3,87
		c3.7,1.1,7.7,0.2,10.4-2.5l2.5-2.4c2.2-2.1,2.1-5.6-0.2-7.6l-9.1-8c-2-1.7-5-1.7-6.9,0.1l-2.7,2.6c-1.6,1.5-4,2-6,1.1
		c-3.9-1.7-10.1-5.8-15.3-15.6c-1.2-2.2-0.7-4.9,1.1-6.6l2.7-2.5c2-1.9,2.2-5,0.4-7.1l-7.5-8.7c-1.9-2.3-5.4-2.4-7.5-0.3L32.9,32.5z
		"/>
</g>
</svg>
