<?xml version="1.0" encoding="utf-8"?>
<!-- Generator: Adobe Illustrator 20.1.0, SVG Export Plug-In . SVG Version: 6.00 Build 0)  -->
<svg version="1.0" id="Calque_1" xmlns="http://www.w3.org/2000/svg" xmlns:xlink="http://www.w3.org/1999/xlink" x="0px" y="0px"
	 viewBox="0 0 198 198" style="enable-background:new 0 0 198 198;" xml:space="preserve">
<style type="text/css">
	.st0{fill:#54A9DE;}
</style>
<g>
	<path class="st0" d="M49.3,13.3C64.5,4.4,81,0,99,0c18,0,34.5,4.4,49.7,13.3c15.2,8.9,27.2,20.9,36,36C193.6,64.5,198,81,198,99
		s-4.4,34.5-13.3,49.7c-8.9,15.2-20.9,27.2-36,36C133.5,193.6,117,198,99,198c-18,0-34.5-4.4-49.7-13.3c-15.2-8.9-27.2-20.9-36-36
		C4.4,133.5,0,117,0,99s4.4-34.5,13.3-49.7C22.1,34.1,34.1,22.1,49.3,13.3z M134.3,67.2c-0.2,0.1-0.6,0.5-1.2,1.2s-1.2,1.1-1.7,1.2
		c0.2,0,0.4-0.2,0.6-0.6c0.2-0.4,0.4-0.9,0.6-1.4c0.2-0.5,0.4-0.8,0.5-0.9c0.5-0.6,1.5-1.3,2.8-1.9c1.2-0.5,3.4-1,6.7-1.6
		c2.9-0.7,5.1-0.2,6.6,1.4c-0.2-0.2,0.2-0.7,1.2-1.7c1-0.9,1.6-1.5,1.9-1.6c0.3-0.2,0.9-0.4,1.9-0.6c1-0.2,1.7-0.5,1.9-1l0.3-2.8
		c-1,0.1-1.8-0.2-2.3-0.9c-0.5-0.7-0.8-1.6-0.8-2.7c0,0.2-0.3,0.5-0.8,1c0-0.6-0.2-0.9-0.6-1s-0.9,0-1.5,0.1c-0.6,0.2-1,0.2-1.2,0.1
		c-0.9-0.3-1.5-0.6-1.9-1c-0.4-0.4-0.8-1.1-1-2.1c-0.3-1-0.4-1.7-0.5-1.9c-0.2-0.4-0.6-0.9-1.2-1.4c-0.6-0.5-1.1-0.9-1.2-1.4
		c-0.1-0.2-0.2-0.4-0.3-0.7s-0.3-0.6-0.4-0.8s-0.3-0.5-0.5-0.7s-0.5-0.3-0.7-0.3c-0.3,0-0.6,0.2-0.9,0.6c-0.3,0.4-0.7,0.9-1,1.3
		s-0.5,0.6-0.6,0.6c-0.3-0.2-0.5-0.2-0.8-0.2c-0.3,0-0.5,0.1-0.6,0.1c-0.1,0-0.3,0.2-0.6,0.4c-0.3,0.2-0.5,0.4-0.6,0.5
		c-0.3,0.2-0.6,0.3-1.1,0.4s-0.8,0.2-1.1,0.3c1.3-0.4,1.2-0.9-0.1-1.4c-0.9-0.3-1.6-0.5-2.1-0.4c0.8-0.3,1.1-0.9,1-1.5
		c-0.1-0.7-0.5-1.3-1.1-1.8h0.6c-0.1-0.3-0.5-0.7-1.1-1.1c-0.6-0.4-1.4-0.8-2.3-1.1c-0.9-0.3-1.4-0.6-1.7-0.8
		c-0.7-0.4-2.1-0.8-4.4-1.2s-3.7-0.4-4.2-0.1c-0.4,0.5-0.6,1-0.6,1.4c0,0.4,0.2,1,0.5,1.8c0.3,0.8,0.5,1.4,0.5,1.6
		c0.1,0.5-0.2,1.1-0.7,1.7c-0.6,0.6-0.8,1.1-0.8,1.6c0,0.6,0.6,1.3,1.8,2c1.2,0.7,1.6,1.7,1.3,2.8c-0.3,0.7-0.9,1.4-2.1,2.1
		c-1.1,0.7-1.8,1.2-2.1,1.6c-0.4,0.7-0.5,1.5-0.2,2.4s0.8,1.6,1.4,2.1c0.2,0.2,0.2,0.3,0.2,0.5c0,0.2-0.2,0.4-0.5,0.6
		c-0.3,0.2-0.5,0.4-0.7,0.5c-0.2,0.1-0.5,0.3-0.8,0.5l-0.4,0.3c-0.9,0.4-1.8,0.2-2.6-0.8c-0.8-0.9-1.4-2.1-1.7-3.4
		c-0.6-2.1-1.3-3.4-2.1-3.9c-2-0.7-3.2-0.6-3.7,0.1c-0.4-1.1-2.2-2.2-5.3-3.3c-2.2-0.8-4.6-0.9-7.5-0.5c0.5-0.1,0.5-0.7,0-1.9
		c-0.6-1.3-1.4-1.8-2.5-1.5c0.3-0.5,0.4-1.3,0.5-2.3s0.1-1.6,0.1-1.7c0.3-1.1,0.8-2.1,1.5-3c0.1-0.1,0.4-0.5,0.9-1.1
		c0.5-0.6,0.9-1.2,1.2-1.7s0.3-0.8,0.1-0.8c3,0.3,5.2-0.1,6.4-1.4c0.4-0.4,0.9-1.2,1.5-2.2c0.6-1,1-1.8,1.4-2.2
		c0.8-0.5,1.4-0.8,1.8-0.7c0.4,0,1.1,0.3,1.9,0.7c0.8,0.4,1.4,0.6,1.9,0.6c1.2,0.1,1.9-0.4,2-1.4c0.1-1-0.2-1.9-1-2.6
		c1,0.1,1.2-0.6,0.4-2.2c-0.4-0.6-0.8-1-1-1.2c-1-0.3-2.2-0.1-3.5,0.6c-0.7,0.3-0.6,0.7,0.3,1c-0.1-0.1-0.5,0.4-1.2,1.4
		c-0.7,1-1.4,1.7-2.1,2.3s-1.4,0.3-2.1-0.6c-0.1-0.1-0.3-0.7-0.7-1.7c-0.4-1.1-0.8-1.7-1.2-1.7c-0.7,0-1.4,0.6-2.1,1.9
		c0.3-0.7-0.2-1.3-1.4-1.9s-2.2-0.9-3.1-1c1.6-1,1.3-2.2-1-3.5c-0.6-0.3-1.5-0.6-2.6-0.6c-1.2-0.1-2,0.1-2.5,0.5
		c-0.4,0.6-0.7,1.1-0.7,1.5c0,0.4,0.2,0.7,0.6,1c0.5,0.3,0.9,0.5,1.4,0.7c0.4,0.2,0.9,0.3,1.5,0.5c0.6,0.2,0.9,0.3,1.1,0.4
		c1.2,0.9,1.5,1.5,1,1.8c-0.2,0.1-0.5,0.2-1.1,0.5c-0.6,0.2-1.1,0.4-1.5,0.6s-0.7,0.3-0.8,0.5c-0.3,0.3-0.3,0.9,0,1.8
		c0.3,0.9,0.2,1.5-0.3,1.8c-0.4-0.4-0.8-1.2-1.2-2.3c-0.3-1.1-0.6-1.8-0.9-2.1c0.6,0.8-0.5,1-3.2,0.8l-1.3-0.1c-0.3,0-1,0.1-2.1,0.3
		c-1,0.2-1.9,0.2-2.7,0.1c-0.7-0.1-1.3-0.4-1.7-1c-0.3-0.7-0.3-1.6,0-2.6c0.1-0.3,0.3-0.4,0.5-0.3c-0.3-0.3-0.8-0.7-1.4-1.2
		c-0.6-0.6-1-0.9-1.3-1.1c-4,1.3-8,3.1-12.1,5.3c0.5,0.1,1,0,1.6-0.1c0.4-0.2,1-0.5,1.7-0.8c0.7-0.4,1.1-0.6,1.3-0.7
		c2.9-1.2,4.7-1.5,5.4-0.9l0.6-0.6c1.2,1.4,2.1,2.5,2.6,3.2c-0.6-0.3-1.9-0.4-3.9-0.1c-1.7,0.5-2.7,1-2.8,1.5c0.6,1,0.8,1.8,0.6,2.3
		c-0.3-0.3-0.8-0.7-1.5-1.3c-0.6-0.6-1.3-1.1-1.9-1.4c-0.6-0.3-1.3-0.6-1.9-0.6c-1.4,0-2.3,0-2.8,0.1c-12.5,6.9-22.6,16.4-30.3,28.6
		c0.6,0.6,1.1,0.9,1.6,1c0.3,0.1,0.6,0.5,0.6,1.2c0.1,0.7,0.2,1.2,0.3,1.4c0.1,0.3,0.6,0.1,1.5-0.4c0.8,0.7,0.9,1.5,0.4,2.4
		c0.1-0.1,2,1.1,5.7,3.5c1.6,1.5,2.5,2.4,2.7,2.7c0.3,0.9-0.2,1.7-1.3,2.3c-0.1-0.2-0.5-0.6-1.2-1.2c-0.7-0.6-1.1-0.8-1.2-0.5
		C38,68.2,38,69,38.3,70.2c0.3,1.2,0.8,1.7,1.4,1.6c-0.6,0-1,0.7-1.2,2.1c-0.2,1.4-0.3,2.9-0.3,4.6c0,1.7,0,2.7-0.1,3l0.3,0.1
		c-0.3,1,0,2.5,0.7,4.5c0.7,1.9,1.6,2.8,2.8,2.5c-1.1,0.3-0.3,2.1,2.6,5.5c0.5,0.7,0.9,1.1,1,1.2c0.3,0.2,0.8,0.5,1.6,1
		s1.4,0.9,1.9,1.3s0.9,0.8,1.3,1.4c0.3,0.4,0.8,1.4,1.3,2.9s1.1,2.5,1.8,3c-0.2,0.5,0.2,1.4,1.2,2.6s1.4,2.2,1.4,3
		c-0.1,0-0.2,0-0.3,0.1c-0.1,0.1-0.2,0.1-0.3,0.1c0.3,0.6,0.9,1.2,2,1.8s1.7,1.2,2,1.7c0.1,0.3,0.2,0.7,0.3,1.3s0.2,1.1,0.4,1.4
		c0.2,0.3,0.5,0.4,1,0.3c0.2-1.7-0.9-4.4-3.1-8c-1.3-2.2-2-3.4-2.2-3.7c-0.3-0.4-0.5-1.1-0.7-2s-0.4-1.5-0.6-1.9
		c0.2,0,0.4,0.1,0.8,0.2c0.3,0.1,0.7,0.3,1.1,0.5c0.4,0.2,0.7,0.3,1,0.5c0.3,0.2,0.3,0.3,0.3,0.4c-0.3,0.6-0.2,1.4,0.3,2.3
		s0.9,1.7,1.6,2.4s1.3,1.5,2.2,2.4c0.9,0.9,1.4,1.5,1.6,1.7c0.5,0.5,1.1,1.4,1.8,2.5c0.7,1.2,0.7,1.7,0,1.7c0.8,0,1.6,0.4,2.6,1.3
		c0.9,0.9,1.7,1.7,2.2,2.6c0.4,0.7,0.8,1.8,1,3.3c0.3,1.6,0.5,2.6,0.6,3.1c0.2,0.6,0.5,1.2,1.1,1.7c0.6,0.6,1.1,1,1.6,1.2
		c0.5,0.3,1.2,0.6,2.1,1c0.9,0.4,1.4,0.7,1.7,0.9c0.4,0.2,1.2,0.6,2.4,1.4c1.2,0.7,2.1,1.2,2.8,1.5c0.9,0.3,1.5,0.5,2.1,0.5
		s1.1-0.1,1.9-0.3c0.7-0.2,1.3-0.4,1.7-0.5c1.3-0.2,2.5,0.5,3.7,1.9c1.2,1.5,2.1,2.4,2.7,2.7c3.1,1.6,5.5,2.1,7.1,1.4
		c-0.2,0.1-0.2,0.4,0.1,1c0.2,0.6,0.6,1.2,1,2c0.5,0.8,0.9,1.4,1.2,1.9c0.3,0.5,0.5,0.8,0.7,1.1c0.4,0.5,1.2,1.2,2.3,1.9
		s1.9,1.4,2.3,1.9c0.5-0.3,0.8-0.7,0.9-1.2c-0.3,0.7,0,1.6,0.9,2.6c0.9,1,1.6,1.5,2.3,1.3c1.2-0.3,1.8-1.6,1.8-4.1
		c-2.7,1.3-4.8,0.5-6.3-2.3c0-0.1-0.1-0.3-0.3-0.7c-0.2-0.4-0.4-0.7-0.5-1.1s-0.2-0.7-0.3-1.1c-0.1-0.4-0.1-0.7,0-1
		c0.1-0.3,0.3-0.4,0.6-0.4c0.8,0,1.2-0.2,1.3-0.5s0-0.8-0.3-1.6c-0.3-0.8-0.4-1.3-0.5-1.7c-0.1-0.7-0.6-1.6-1.4-2.6
		c-0.9-1-1.4-1.7-1.5-1.9c-0.4,0.8-1.1,1.1-2.1,1c-0.9-0.1-1.6-0.5-2.1-1.2c0,0.1-0.1,0.3-0.2,0.7s-0.2,0.7-0.2,0.8
		c-1.1,0-1.8,0-1.9-0.1c0.1-0.3,0.2-1,0.3-2.3c0.1-1.3,0.3-2.2,0.5-2.9c0.1-0.3,0.3-0.9,0.7-1.5c0.4-0.7,0.7-1.3,1-1.9
		c0.3-0.6,0.4-1.1,0.5-1.6s-0.1-0.9-0.6-1.2c-0.5-0.3-1.2-0.4-2.3-0.3c-1.6,0.1-2.8,0.9-3.4,2.6c-0.1,0.3-0.2,0.7-0.4,1.4
		c-0.2,0.6-0.4,1.1-0.6,1.5c-0.3,0.3-0.6,0.6-1.2,0.9c-0.6,0.3-1.6,0.3-3.1,0.3c-1.5-0.1-2.5-0.3-3.1-0.6c-1.1-0.7-2.1-1.9-2.9-3.7
		s-1.2-3.4-1.2-4.8c0-0.9,0.1-2,0.3-3.4s0.3-2.5,0.4-3.2c0-0.7-0.2-1.8-0.7-3.2c0.3-0.2,0.6-0.6,1.2-1.2c0.5-0.6,0.9-1.1,1.3-1.4
		c0.2-0.1,0.4-0.2,0.6-0.2c0.2,0,0.4,0,0.6,0c0.2,0,0.3,0,0.5-0.2c0.2-0.2,0.3-0.4,0.4-0.8c-0.1-0.1-0.3-0.2-0.5-0.4
		c-0.3-0.3-0.4-0.4-0.5-0.4c0.6,0.3,1.8,0.2,3.7-0.2c1.8-0.4,3-0.3,3.5,0.2c1.3,0.9,2.2,0.9,2.8-0.3c0-0.1-0.1-0.5-0.3-1.2
		c-0.2-0.7-0.2-1.3-0.1-1.7c0.4,2.3,1.7,2.7,3.7,1.2c0.3,0.3,0.9,0.5,2,0.6c1.1,0.2,1.8,0.4,2.3,0.6c0.3,0.2,0.6,0.4,0.9,0.7
		c0.3,0.3,0.6,0.5,0.7,0.6c0.1,0.1,0.3,0.1,0.6-0.1s0.7-0.4,1.1-0.8c0.9,1.2,1.4,2.2,1.6,3.1c0.9,3.4,1.8,5.3,2.5,5.7
		c0.6,0.3,1.1,0.3,1.4,0.3c0.3-0.1,0.5-0.5,0.6-1.2s0-1.3,0-1.8s-0.1-1-0.2-1.6l-0.1-1c0-0.8,0-1.6,0-2.3l-0.1-1
		c-1.3-0.3-2.1-0.8-2.4-1.6c-0.3-0.8-0.2-1.6,0.2-2.4s1.1-1.6,1.9-2.4c0.1-0.1,0.4-0.2,1-0.5s1.3-0.5,2-0.8s1.3-0.7,1.6-1
		c1.8-1.6,2.5-3.1,1.9-4.5c0.6,0,1.1-0.4,1.4-1.2c-0.1,0-0.3-0.1-0.6-0.4c-0.3-0.3-0.7-0.5-1-0.6c-0.3-0.2-0.5-0.3-0.6-0.3
		c0.8-0.4,0.9-1.1,0.3-2.1c0.4-0.3,0.8-0.7,1-1.4c0.2-0.7,0.5-1.1,1-1.3c0.8,1,1.7,1.1,2.7,0.3c0.6-0.7,0.6-1.4,0.1-2.1
		c0.4-0.6,1.3-1.1,2.6-1.4c1.3-0.3,2.1-0.7,2.4-1.2c0.6,0.2,0.9,0.1,1-0.3c0.1-0.3,0.1-0.9,0.1-1.5s0.1-1.2,0.4-1.6
		c0.3-0.4,1-0.8,1.9-1.2c0.9-0.3,1.5-0.6,1.7-0.6l2.2-1.4c0.3-0.3,0.3-0.5,0-0.5c1.6,0.2,2.9-0.3,4-1.4c0.9-0.9,0.6-1.8-0.8-2.6
		c0.3-0.5,0.1-0.9-0.4-1.2s-1.2-0.5-1.9-0.7c0.3-0.1,0.8-0.1,1.5-0.1s1.2,0,1.4-0.2c1.3-0.9,1-1.5-0.9-2.1
		C138.4,65.2,136.6,65.7,134.3,67.2z M113.3,180.2c17.7-3.1,32.8-11.2,45.2-24.4c-0.3-0.3-0.8-0.5-1.6-0.6s-1.4-0.3-1.6-0.5
		c-1.6-0.6-2.6-0.9-3.1-1c0.1-0.6,0-1.2-0.3-1.7s-0.6-0.9-1-1.2c-0.4-0.3-0.9-0.6-1.6-1s-1.2-0.7-1.4-0.9c-0.2-0.2-0.5-0.4-0.9-0.8
		c-0.4-0.3-0.7-0.6-0.9-0.7c-0.2-0.1-0.5-0.3-1-0.6c-0.5-0.3-0.8-0.3-1.1-0.3c-0.3,0.1-0.7,0.1-1.3,0.1l-0.4,0.1
		c-0.3,0.1-0.5,0.2-0.7,0.3s-0.5,0.3-0.7,0.4c-0.3,0.1-0.4,0.3-0.5,0.4s-0.1,0.2,0,0.3c-1.8-1.5-3.4-2.4-4.6-2.8
		c-0.4-0.1-0.9-0.3-1.4-0.7s-1-0.7-1.4-0.9c-0.4-0.2-0.8-0.3-1.3-0.2s-1,0.4-1.5,0.9c-0.4,0.4-0.7,1.1-0.8,1.9
		c-0.1,0.9-0.2,1.4-0.3,1.7c-0.6-0.4-0.6-1.2,0-2.3s0.7-1.9,0.3-2.4c-0.3-0.5-0.7-0.7-1.4-0.6c-0.6,0.1-1.2,0.3-1.5,0.6
		c-0.4,0.3-0.9,0.6-1.5,1.1c-0.6,0.5-1,0.8-1.2,0.8c-0.2,0.1-0.5,0.3-1.1,0.7c-0.6,0.4-0.9,0.7-1.1,1c-0.3,0.3-0.5,0.9-0.8,1.6
		s-0.5,1.2-0.6,1.4c-0.2-0.3-0.7-0.6-1.5-0.8c-0.8-0.2-1.2-0.5-1.2-0.7c0.2,0.9,0.3,2.4,0.5,4.5s0.4,3.8,0.6,4.9
		c0.6,2.7,0.1,4.7-1.6,6.2c-2.3,2.2-3.6,3.9-3.7,5.2c-0.3,1.9,0.2,3,1.5,3.3c0,0.6-0.3,1.5-1,2.7c-0.7,1.2-1,2.1-0.9,2.8
		C113,178.7,113.1,179.4,113.3,180.2z"/>
</g>
</svg>
