<?xml version="1.0" encoding="utf-8"?>
<!-- Generator: Adobe Illustrator 20.1.0, SVG Export Plug-In . SVG Version: 6.00 Build 0)  -->
<svg version="1.0" id="Calque_1" xmlns="http://www.w3.org/2000/svg" xmlns:xlink="http://www.w3.org/1999/xlink" x="0px" y="0px"
	 viewBox="0 0 260.8 224.9" style="enable-background:new 0 0 260.8 224.9;" xml:space="preserve">
<style type="text/css">
	.st0{fill:#2DC100;}
</style>
<g>
	<path class="st0" d="M181.2,74c-24.2,1.3-45.3,8.6-62.4,25.2c-17.3,16.8-25.2,37.3-23,62.7c-9.5-1.2-18.1-2.5-26.8-3.2
		c-3-0.3-6.5,0.1-9.1,1.5c-8.4,4.8-16.5,10.1-26.1,16.1c1.8-7.9,2.9-14.9,4.9-21.6c1.5-4.9,0.8-7.6-3.7-10.8
		C6.1,123.4-6.2,92.7,3,61c8.5-29.2,29.3-47,57.6-56.2c38.6-12.6,82.1,0.3,105.5,30.9C174.6,46.8,179.8,59.3,181.2,74z M69.8,64.1
		C70,58.3,65,53.1,59,52.9c-6.1-0.2-11.1,4.5-11.3,10.5c-0.2,6.1,4.5,11,10.6,11.1C64.5,74.7,69.6,70,69.8,64.1z M127.9,52.9
		c-6,0.1-11,5.2-10.9,11c0.1,6,5.1,10.7,11.2,10.7c6.2-0.1,10.8-4.8,10.8-11C138.9,57.6,134,52.8,127.9,52.9z"/>
	<path class="st0" d="M235.6,224.9c-7.7-3.4-14.7-8.5-22.2-9.3c-7.5-0.8-15.3,3.5-23.1,4.3c-23.8,2.4-45.1-4.2-62.6-20.4
		c-33.4-30.9-28.6-78.3,10-103.6c34.3-22.5,84.7-15,108.9,16.2c21.1,27.2,18.6,63.4-7.1,86.3c-7.5,6.6-10.2,12.1-5.4,20.8
		C235,220.8,235.1,222.9,235.6,224.9z M148.3,140.4c4.9,0,8.9-3.8,9.1-8.6c0.2-5.1-3.9-9.4-9-9.4c-5.1,0-9.3,4.3-9.1,9.3
		C139.5,136.5,143.5,140.4,148.3,140.4z M204.6,122.4c-4.7,0-8.8,3.8-9,8.6c-0.2,5.1,3.8,9.3,8.8,9.3c4.9,0,8.8-3.7,8.9-8.6
		C213.6,126.7,209.6,122.4,204.6,122.4z"/>
</g>
</svg>
