<svg xmlns="http://www.w3.org/2000/svg" viewBox="0 0 464.7 92.7"><linearGradient id="a" gradientUnits="userSpaceOnUse" x1="-5514.015" y1="-3.127" x2="-5471.149" y2="54.186" gradientTransform="matrix(-1 0 0 1 -5439.42 0)"><stop offset=".291" stop-color="#EE2A7B"/><stop offset=".442" stop-color="#D42980"/><stop offset=".699" stop-color="#B02887"/><stop offset=".892" stop-color="#9A298C"/><stop offset="1" stop-color="#922A8E"/></linearGradient><path fill="url(#a)" d="M6 22.9C14.3 5 35.6-2.7 53.5 5.6 71.4 14 79.2 35.2 70.8 53.2c-4.2 9-11.6 15.4-20.2 18.5l5.1 14.1c.8 2.3-.4 4.9-2.8 5.7-1.4.5-2.9.3-4.1-.5L17.1 66.8c-.1 0-.1-.1-.2-.1l-.7-.5C3.5 56.1-1.2 38.3 6 22.9z"/><linearGradient id="b" gradientUnits="userSpaceOnUse" x1="103.151" y1="75.487" x2="61.036" y2="7.558"><stop offset="0" stop-color="#922A8E"/><stop offset=".121" stop-color="#9A298C"/><stop offset=".341" stop-color="#B02887"/><stop offset=".63" stop-color="#D42980"/><stop offset=".801" stop-color="#EE2A7B"/></linearGradient><path fill="url(#b)" d="M119.8 38.6C114.7 22.7 97.6 13.9 81.7 19c-1.6.5-3.1 1.2-4.6 1.9 4.8 10.8 5.1 23.5-.3 35-2.1 4.6-5 8.6-8.4 12 2.5 2.8 5.4 5.1 8.7 6.8L71.2 86c-.9 1.9-.2 4.2 1.7 5.1 1.1.6 2.4.5 3.5 0l29.3-16.9c.1 0 .1-.1.2-.1l.6-.4c11.8-7 17.6-21.4 13.3-35.1z"/><g fill="#333"><path d="M162.3 41.3c-.1-.2-.1-.5-.1-.8 0-2.6 2.9-4.5 7.3-4.5 4.1 0 8.1 1.3 11 3.2 1.1.7 2 1.4 2.7 2.2l1.5-2.7 3.4-5.9c-4.6-3.6-10.8-6.3-18.6-6.3-12.3 0-19 6.8-19 14.6 0 .6 0 1.1.1 1.6 1.6 16.2 27.3 10.6 27.3 17.9 0 2.9-2.5 4.9-7.8 4.9-5.8 0-12.6-3.2-16-6.4l-5.3 8.8c4.9 4.5 12.7 7.2 20.7 7.2 12.8 0 20.1-6.2 20.1-14.8.1-17.9-25.3-13.3-27.3-19zM257.2 30.2c-7.8-5.3-20.6-5.5-28.4-.2h-.1-.1c-10.5-7.1-29.9-4.4-34.2 7.4-.5 1.5-.8 3.1-.8 4.9V74h12.6V42.3c0-8.3 16.2-8.4 16.2 0h.1V74h12.6V42.3c0-8.4 16.2-8.3 16.2 0V74h12.6V42.3c0-5.4-2.7-9.4-6.7-12.1zM398 37.3c4.2 0 7.6 1.7 9.8 5l8-7.5c-3.1-4.2-8.8-8.3-18.3-8.3-14.2 0-24.5 10.1-24.5 24.3 0 14.3 10.4 24.3 24.5 24.3 9.5 0 15.2-4.2 18.3-8.4l-8-7.5c-2.2 3.2-5.6 5.1-9.8 5.1-7.4 0-12.6-5.5-12.6-13.5s5.3-13.5 12.6-13.5zM432.3 27.6V9.2c-3.8.4-8 .9-12.5 1.4V73.9h12.5V41.2c1.6-7.3 18.5-7 18.5.9v31.8h12.6V42.4c0-14-16.6-19-31.1-14.8zM292.1 26.5c-15.2 0-24.4 11.1-24.4 24.3s9.2 24.3 24.4 24.3c15.3 0 24.5-11.2 24.5-24.3s-9.1-24.3-24.5-24.3zm0 37.8c-7.6 0-11.8-6.2-11.8-13.5 0-7.2 4.2-13.4 11.8-13.4 7.7 0 11.9 6.2 11.9 13.4s-4.2 13.5-11.9 13.5zM345.3 26.5c-15.2 0-24.4 11.1-24.4 24.3s9.2 24.3 24.4 24.3c15.3 0 24.5-11.2 24.5-24.3s-9.2-24.3-24.5-24.3zm0 37.8c-7.6 0-11.8-6.2-11.8-13.5 0-7.2 4.2-13.4 11.8-13.4 7.7 0 11.9 6.2 11.9 13.4-.1 7.2-4.3 13.5-11.9 13.5z"/></g></svg>