<?xml version="1.0" encoding="utf-8"?>
<!-- Generator: Adobe Illustrator 20.1.0, SVG Export Plug-In . SVG Version: 6.00 Build 0)  -->
<svg version="1.0" id="Calque_1" xmlns="http://www.w3.org/2000/svg" xmlns:xlink="http://www.w3.org/1999/xlink" x="0px" y="0px"
	 viewBox="0 0 65.6 65.6" style="enable-background:new 0 0 65.6 65.6;" xml:space="preserve">
<style type="text/css">
	.st0{fill:#FFFFFF;}
	.st1{fill:#9FA6AC;}
</style>
<g>
	<path class="st0" d="M32.8,62.3c-7.9,0-15.3-3.1-20.9-8.6c-11.5-11.5-11.5-30.2,0-41.8c5.6-5.6,13-8.6,20.9-8.6
		c7.9,0,15.3,3.1,20.9,8.6c11.5,11.5,11.5,30.2,0,41.8C48.1,59.3,40.7,62.3,32.8,62.3z"/>
	<path class="st1" d="M32.8,6.6c7,0,13.6,2.7,18.6,7.7c5,5,7.7,11.5,7.7,18.6s-2.7,13.6-7.7,18.6c-5,5-11.5,7.7-18.6,7.7
		s-13.6-2.7-18.6-7.7c-5-5-7.7-11.5-7.7-18.6s2.7-13.6,7.7-18.6C19.2,9.3,25.8,6.6,32.8,6.6 M32.8,0C24.4,0,16,3.2,9.6,9.6
		C-3.2,22.4-3.2,43.2,9.6,56c6.4,6.4,14.8,9.6,23.2,9.6S49.6,62.4,56,56c12.8-12.8,12.8-33.6,0-46.4C49.6,3.2,41.2,0,32.8,0L32.8,0z
		"/>
</g>
<g>
	<path class="st1" d="M9.6,56C-3.2,43.2-3.2,22.4,9.6,9.6S43.2-3.2,56,9.6L9.6,56z"/>
</g>
</svg>
